<?xml version="1.0" standalone="no"?><!DOCTYPE svg PUBLIC "-//W3C//DTD SVG 1.1//EN" "http://www.w3.org/Graphics/SVG/1.1/DTD/svg11.dtd"><svg t="1567654679684" class="icon" viewBox="0 0 1024 1024" version="1.1" xmlns="http://www.w3.org/2000/svg" p-id="1162" xmlns:xlink="http://www.w3.org/1999/xlink" width="200" height="200"><defs><style type="text/css"></style></defs><path d="M675.983283 262.833127c-40.938388-46.838771-101.132328-76.533071-168.347173-76.533071-66.780963 0-126.663818 29.445636-167.664627 75.911924l0.434905 0.372483c-5.591345 8.075933 2.112104 24.351618 17.765619 36.775578 14.72333 11.865235 31.309076 16.028045 38.639019 10.063193l1.056052 0.932232c28.016077-32.488948 69.327972-53.051263 115.483174-53.051263 43.23571 0 81.936127 17.890462 109.766986 46.591131 0.187265 0.310062 0.187265 0.621147 0.434905 0.932232 5.5279 6.957459 21.680788 3.291976 35.967166-8.387018 14.163581-11.429307 21.122063-26.152637 16.027022-33.233915L675.983283 262.833127z" fill="#1296db" p-id="1163"></path><path d="M762.143619 195.308221c-0.682545-0.682545-1.366114-1.366114-1.924839-2.112104-0.124843-0.124843-0.187265-0.372483-0.312108-0.496304-0.24764-0.311085-0.558725-0.434905-0.744967-0.683569C698.035532 121.757065 608.023472 77.154217 507.636111 77.154217c-100.138698 0-189.840696 44.291762-250.906493 114.239857-0.496304 0.434905-1.11745 0.808412-1.553379 1.304715-6.27389 7.827269 1.490957 24.537859 17.394159 37.271882 15.592117 12.486382 33.110095 16.461927 39.695071 9.193383l0.310062 0.311085c47.584762-54.355979 117.222795-88.770789 195.060581-88.770789 78.582753 0 148.84091 35.035958 196.36325 90.136903l0.435928-0.311085c7.577582 5.15644 23.728424 0.932232 38.016849-10.621918 14.163581-11.244089 21.804608-25.53149 19.008936-34.167171L762.143619 195.308221z" fill="#1296db" p-id="1164"></path><path d="M749.161956 897.395534 749.161956 897.395534l-181.952029-439.131389c16.95823-13.976316 28.016077-34.849716 28.016077-58.517765 0-42.055838-34.104749-76.221985-76.160587-76.221985s-76.097142 34.228569-76.097142 76.221985c0 25.593911 12.734022 48.204885 32.302707 61.995983L293.753859 899.320373c-0.186242 0.497327-0.433882 0.933255-0.496304 1.304715l-0.74599 1.614777 0.186242 0.064468c-1.179872 3.353374-1.925862 6.892991-1.925862 10.746762-0.062422 18.759249 15.033391 33.792641 33.731242 33.792641 18.698874 0 33.731242-15.033391 33.731242-33.731242l43.11189-107.96699 242.333234 0 42.739407 100.821243c-0.559748 2.300392-0.74599 4.66116-0.74599 7.144724 0 18.696828 15.032368 33.731242 33.732266 33.731242 18.573008 0 33.792641-15.033391 33.792641-33.731242C753.198899 907.397329 751.583099 902.119115 749.161956 897.395534zM519.128863 510.135536l56.218396 133.24777L465.889311 643.383306 519.128863 510.135536zM417.684426 764.210185l30.377868-76.160587 146.232502 0 32.177863 76.160587L417.684426 764.210185z" fill="#1296db" p-id="1165"></path></svg>